<svg width="125" height="37" viewBox="0 0 125 37" fill="none" xmlns="http://www.w3.org/2000/svg">
<path d="M3.14489 14L1.73864 0.909091H3.34943L4.32102 11.571H4.44886L9 0.909091H10.7898L11.8125 11.571H11.9403L16.4403 0.909091H18.0511L12.2983 14H10.6619L9.51136 3.56818H9.40909L4.78125 14H3.14489ZM19.9486 8.09375L18.977 14H17.4684L19.6417 0.909091H21.1503L20.3576 5.71591H20.4855C20.7923 5.20455 21.2014 4.79972 21.7128 4.50142C22.2284 4.20312 22.8761 4.05398 23.6559 4.05398C24.3207 4.05398 24.8811 4.18821 25.337 4.45668C25.7973 4.72088 26.1211 5.12784 26.3086 5.67756C26.5004 6.22301 26.5281 6.91761 26.3917 7.76136L25.3434 14H23.8349L24.8576 7.86364C24.9855 7.08381 24.8811 6.48082 24.5444 6.05469C24.212 5.62429 23.6943 5.40909 22.9912 5.40909C22.4968 5.40909 22.0366 5.51349 21.6105 5.7223C21.1886 5.93111 20.8307 6.2358 20.5366 6.63636C20.2468 7.03693 20.0508 7.52273 19.9486 8.09375ZM30.7868 14.2301C30.1647 14.2301 29.6192 14.1129 29.1505 13.8786C28.6817 13.6399 28.3344 13.2969 28.1086 12.8494C27.8827 12.3977 27.8209 11.8523 27.9232 11.2131C28.0212 10.6506 28.2108 10.1946 28.4921 9.84517C28.7733 9.49148 29.1143 9.21449 29.5148 9.0142C29.9197 8.80966 30.3543 8.65838 30.8188 8.56037C31.2875 8.4581 31.7542 8.37926 32.2187 8.32386C32.8238 8.24716 33.316 8.1875 33.6952 8.14489C34.0745 8.10227 34.36 8.03196 34.5518 7.93395C34.7435 7.83594 34.8607 7.66761 34.9033 7.42898V7.37784C35.0056 6.75142 34.9225 6.26349 34.654 5.91406C34.3856 5.56037 33.9062 5.38352 33.2158 5.38352C32.4999 5.38352 31.9012 5.54119 31.4197 5.85653C30.9381 6.17187 30.5823 6.50852 30.3522 6.86648L29.0226 6.35511C29.3721 5.75852 29.7897 5.29403 30.2755 4.96165C30.7613 4.625 31.2705 4.39062 31.8032 4.25852C32.3358 4.12216 32.8493 4.05398 33.3437 4.05398C33.659 4.05398 34.0148 4.09233 34.4111 4.16903C34.8074 4.24148 35.1782 4.39276 35.5233 4.62287C35.8728 4.85298 36.1349 5.20028 36.3096 5.66477C36.4885 6.12926 36.5141 6.75142 36.3863 7.53125L35.3124 14H33.8039L34.034 12.6705H33.9573C33.8209 12.8835 33.6121 13.1115 33.3309 13.3544C33.0539 13.5973 32.7023 13.804 32.2762 13.9744C31.8543 14.1449 31.3579 14.2301 30.7868 14.2301ZM31.2215 12.875C31.8181 12.875 32.3401 12.7578 32.7875 12.5234C33.2393 12.2891 33.6015 11.9865 33.8742 11.6158C34.1512 11.245 34.3238 10.8551 34.392 10.446L34.6221 9.06534C34.5454 9.14205 34.3941 9.21236 34.1682 9.27628C33.9424 9.33594 33.6867 9.3892 33.4012 9.43608C33.1199 9.47869 32.8451 9.51705 32.5766 9.55114C32.3124 9.58097 32.0993 9.60653 31.9374 9.62784C31.5368 9.67898 31.1554 9.76207 30.7932 9.87713C30.4353 9.98793 30.1327 10.1562 29.8856 10.3821C29.6427 10.6037 29.4914 10.9062 29.4317 11.2898C29.3422 11.8139 29.4679 12.2102 29.8089 12.4787C30.1498 12.7429 30.6206 12.875 31.2215 12.875ZM43.792 4.18182L43.5875 5.46023H38.4994L38.704 4.18182H43.792ZM40.5704 1.82955H42.079L40.5193 11.1875C40.4511 11.6136 40.4618 11.9332 40.5513 12.1463C40.645 12.3551 40.7856 12.4957 40.9731 12.5682C41.1649 12.6364 41.3716 12.6705 41.5932 12.6705C41.7594 12.6705 41.8957 12.6619 42.0023 12.6449C42.1088 12.6236 42.194 12.6065 42.2579 12.5938L42.3602 13.9489C42.2452 13.9872 42.0896 14.0256 41.8936 14.0639C41.7018 14.1065 41.4653 14.1278 41.1841 14.1278C40.7579 14.1278 40.3574 14.0362 39.9824 13.853C39.6074 13.6697 39.3197 13.3906 39.1194 13.0156C38.9192 12.6406 38.8659 12.1676 38.9596 11.5966L40.5704 1.82955ZM52.8219 14.2045C51.9995 14.2045 51.3092 13.9979 50.7509 13.5845C50.1927 13.1669 49.7985 12.5788 49.5684 11.8203C49.3425 11.0575 49.3148 10.1562 49.4853 9.11648C49.66 8.08523 49.986 7.19034 50.4633 6.43182C50.9448 5.6733 51.535 5.08736 52.2339 4.67401C52.9327 4.26065 53.6955 4.05398 54.5222 4.05398C55.1614 4.05398 55.6494 4.16051 55.986 4.37358C56.3269 4.58239 56.5741 4.82102 56.7275 5.08949C56.8809 5.35369 56.9981 5.57102 57.079 5.74148H57.2069L58.0123 0.909091H59.5208L57.3475 14H55.8901L56.1458 12.4915H55.9668C55.8262 12.6705 55.6302 12.8963 55.3788 13.169C55.1273 13.4375 54.795 13.6783 54.3816 13.8913C53.9725 14.1001 53.4526 14.2045 52.8219 14.2045ZM53.1927 12.8494C53.7978 12.8494 54.339 12.6918 54.8163 12.3764C55.2978 12.0568 55.6984 11.6158 56.018 11.0533C56.3376 10.4865 56.5592 9.83239 56.6827 9.09091C56.8063 8.35795 56.8021 7.71662 56.67 7.1669C56.5379 6.61293 56.2843 6.18253 55.9093 5.87571C55.5343 5.56463 55.0379 5.40909 54.42 5.40909C53.785 5.40909 53.2332 5.57315 52.7644 5.90128C52.2957 6.22514 51.9143 6.66619 51.6202 7.22443C51.3262 7.77841 51.1217 8.40057 51.0066 9.09091C50.8915 9.78977 50.8894 10.4247 51.0002 10.9957C51.111 11.5625 51.3454 12.0142 51.7033 12.3509C52.0656 12.6832 52.562 12.8494 53.1927 12.8494ZM64.1796 14.2045C63.2762 14.2045 62.5198 13.9893 61.9104 13.5589C61.301 13.1286 60.8706 12.5256 60.6192 11.75C60.3721 10.9744 60.3316 10.071 60.4978 9.03977C60.6597 8.03409 60.9814 7.15838 61.463 6.41264C61.9488 5.66264 62.5517 5.0831 63.2719 4.67401C63.9963 4.26065 64.7932 4.05398 65.6625 4.05398C66.5659 4.05398 67.3202 4.27131 67.9253 4.70597C68.5347 5.13636 68.9651 5.74148 69.2165 6.52131C69.4679 7.29687 69.5106 8.20455 69.3444 9.24432C69.1824 10.2415 68.8564 11.1129 68.3664 11.8587C67.8806 12.6001 67.2776 13.1776 66.5574 13.5909C65.8415 14 65.0489 14.2045 64.1796 14.2045ZM64.2052 12.8494C64.8955 12.8494 65.4942 12.6726 66.0013 12.3189C66.5127 11.9652 66.926 11.4986 67.2414 10.919C67.561 10.3395 67.7762 9.71307 67.887 9.03977C67.9892 8.40057 67.985 7.80611 67.8742 7.25639C67.7634 6.70241 67.5269 6.2571 67.1647 5.92045C66.8025 5.57955 66.2932 5.40909 65.637 5.40909C64.9466 5.40909 64.3436 5.58807 63.828 5.94602C63.3167 6.30398 62.9033 6.77486 62.588 7.35866C62.2726 7.94247 62.0617 8.57102 61.9552 9.24432C61.8529 9.88352 61.855 10.478 61.9615 11.0277C62.0723 11.5732 62.3088 12.0142 62.6711 12.3509C63.0375 12.6832 63.5489 12.8494 64.2052 12.8494ZM74.7782 14.2045C73.8364 14.2045 73.0587 13.9957 72.4451 13.5781C71.8314 13.1562 71.4032 12.5682 71.1603 11.8139C70.9174 11.0554 70.879 10.1733 71.0452 9.16761C71.2114 8.16193 71.5417 7.27557 72.036 6.50852C72.5303 5.73722 73.1461 5.13636 73.8833 4.70597C74.6205 4.27131 75.4302 4.05398 76.3123 4.05398C76.8236 4.05398 77.3158 4.1392 77.7888 4.30966C78.2618 4.48011 78.6709 4.7571 79.0161 5.14062C79.3613 5.51989 79.602 6.02273 79.7384 6.64915C79.8748 7.27557 79.8662 8.04687 79.7128 8.96307L79.6106 9.60227H72.0424L72.2469 8.2983H78.281C78.379 7.74432 78.3535 7.25 78.2043 6.81534C78.0594 6.38068 77.8059 6.03764 77.4437 5.78622C77.0857 5.5348 76.6319 5.40909 76.0821 5.40909C75.5154 5.40909 74.987 5.5625 74.4969 5.86932C74.0069 6.17187 73.5978 6.5554 73.2697 7.01989C72.9415 7.48011 72.737 7.94886 72.656 8.42614L72.477 9.55114C72.3492 10.3651 72.3684 11.0128 72.5346 11.4943C72.705 11.9759 73.0012 12.3232 73.4231 12.5362C73.8449 12.745 74.3733 12.8494 75.0083 12.8494C75.4131 12.8494 75.786 12.794 76.1269 12.6832C76.4678 12.5682 76.7725 12.3977 77.041 12.1719C77.3094 11.9418 77.5353 11.6562 77.7185 11.3153L79.0992 11.7244C78.8648 12.2188 78.5346 12.6534 78.1084 13.0284C77.6866 13.3991 77.1922 13.6889 76.6255 13.8977C76.063 14.1023 75.4472 14.2045 74.7782 14.2045ZM89.2519 6.38068L87.8201 6.7642C87.769 6.53409 87.6795 6.3125 87.5517 6.09943C87.4281 5.8821 87.2363 5.70526 86.9764 5.56889C86.7207 5.42827 86.3713 5.35795 85.9281 5.35795C85.3272 5.35795 84.8052 5.49645 84.362 5.77344C83.9188 6.04616 83.6653 6.39347 83.6014 6.81534C83.5374 7.18608 83.6227 7.48224 83.8571 7.70384C84.0914 7.92543 84.4835 8.10653 85.0332 8.24716L86.4394 8.60511C87.2832 8.82244 87.884 9.14844 88.242 9.5831C88.6042 10.0135 88.7278 10.5739 88.6127 11.2642C88.519 11.8267 88.274 12.3295 87.8776 12.7727C87.4813 13.2159 86.9742 13.5653 86.3563 13.821C85.7384 14.0767 85.0502 14.2045 84.2917 14.2045C83.2818 14.2045 82.4849 13.9872 81.9011 13.5526C81.3173 13.1136 81.0062 12.4787 80.9678 11.6477L82.4764 11.2898C82.5147 11.8139 82.7022 12.2102 83.0389 12.4787C83.3798 12.7429 83.8571 12.875 84.4707 12.875C85.1738 12.875 85.7597 12.7259 86.2285 12.4276C86.6972 12.125 86.9636 11.7628 87.0275 11.3409C87.0914 10.9957 87.0232 10.7081 86.823 10.478C86.6269 10.2479 86.286 10.0753 85.8002 9.96023L84.2406 9.5767C83.3713 9.35937 82.7619 9.02699 82.4124 8.57955C82.0673 8.1321 81.9522 7.5696 82.0673 6.89205C82.161 6.33807 82.3997 5.84801 82.7832 5.42188C83.171 4.99574 83.6568 4.66122 84.2406 4.41832C84.8286 4.17543 85.4678 4.05398 86.1582 4.05398C87.1298 4.05398 87.8563 4.26705 88.3379 4.69318C88.8194 5.11506 89.1241 5.67756 89.2519 6.38068ZM101.032 4.18182L100.827 5.46023H95.7394L95.944 4.18182H101.032ZM97.8104 1.82955H99.319L97.7593 11.1875C97.6911 11.6136 97.7018 11.9332 97.7913 12.1463C97.885 12.3551 98.0256 12.4957 98.2131 12.5682C98.4049 12.6364 98.6116 12.6705 98.8332 12.6705C98.9994 12.6705 99.1357 12.6619 99.2423 12.6449C99.3488 12.6236 99.434 12.6065 99.4979 12.5938L99.6002 13.9489C99.4852 13.9872 99.3296 14.0256 99.1336 14.0639C98.9418 14.1065 98.7053 14.1278 98.4241 14.1278C97.9979 14.1278 97.5974 14.0362 97.2224 13.853C96.8474 13.6697 96.5597 13.3906 96.3594 13.0156C96.1592 12.6406 96.1059 12.1676 96.1996 11.5966L97.8104 1.82955ZM104.176 8.09375L103.204 14H101.696L103.869 0.909091H105.378L104.585 5.71591H104.713C105.02 5.20455 105.429 4.79972 105.94 4.50142C106.456 4.20312 107.103 4.05398 107.883 4.05398C108.548 4.05398 109.108 4.18821 109.564 4.45668C110.025 4.72088 110.348 5.12784 110.536 5.67756C110.728 6.22301 110.755 6.91761 110.619 7.76136L109.571 14H108.062L109.085 7.86364C109.213 7.08381 109.108 6.48082 108.772 6.05469C108.439 5.62429 107.922 5.40909 107.219 5.40909C106.724 5.40909 106.264 5.51349 105.838 5.7223C105.416 5.93111 105.058 6.2358 104.764 6.63636C104.474 7.03693 104.278 7.52273 104.176 8.09375ZM112.151 14L113.787 4.18182H115.295L113.659 14H112.151ZM115.001 2.51989C114.707 2.51989 114.454 2.41974 114.241 2.21946C114.032 2.01918 113.928 1.77841 113.928 1.49716C113.928 1.21591 114.032 0.975142 114.241 0.774858C114.454 0.574573 114.707 0.474431 115.001 0.474431C115.295 0.474431 115.547 0.574573 115.756 0.774858C115.969 0.975142 116.075 1.21591 116.075 1.49716C116.075 1.77841 115.969 2.01918 115.756 2.21946C115.547 2.41974 115.295 2.51989 115.001 2.51989ZM124.475 6.38068L123.043 6.7642C122.992 6.53409 122.903 6.3125 122.775 6.09943C122.651 5.8821 122.459 5.70526 122.199 5.56889C121.944 5.42827 121.594 5.35795 121.151 5.35795C120.55 5.35795 120.028 5.49645 119.585 5.77344C119.142 6.04616 118.888 6.39347 118.824 6.81534C118.761 7.18608 118.846 7.48224 119.08 7.70384C119.314 7.92543 119.707 8.10653 120.256 8.24716L121.662 8.60511C122.506 8.82244 123.107 9.14844 123.465 9.5831C123.827 10.0135 123.951 10.5739 123.836 11.2642C123.742 11.8267 123.497 12.3295 123.101 12.7727C122.704 13.2159 122.197 13.5653 121.579 13.821C120.961 14.0767 120.273 14.2045 119.515 14.2045C118.505 14.2045 117.708 13.9872 117.124 13.5526C116.54 13.1136 116.229 12.4787 116.191 11.6477L117.699 11.2898C117.738 11.8139 117.925 12.2102 118.262 12.4787C118.603 12.7429 119.08 12.875 119.694 12.875C120.397 12.875 120.983 12.7259 121.452 12.4276C121.92 12.125 122.187 11.7628 122.251 11.3409C122.314 10.9957 122.246 10.7081 122.046 10.478C121.85 10.2479 121.509 10.0753 121.023 9.96023L119.464 9.5767C118.594 9.35937 117.985 9.02699 117.636 8.57955C117.29 8.1321 117.175 7.5696 117.29 6.89205C117.384 6.33807 117.623 5.84801 118.006 5.42188C118.394 4.99574 118.88 4.66122 119.464 4.41832C120.052 4.17543 120.691 4.05398 121.381 4.05398C122.353 4.05398 123.079 4.26705 123.561 4.69318C124.042 5.11506 124.347 5.67756 124.475 6.38068ZM4.65341 36.2045C3.71165 36.2045 2.93395 35.9957 2.32031 35.5781C1.70668 35.1562 1.27841 34.5682 1.03551 33.8139C0.792614 33.0554 0.754261 32.1733 0.920455 31.1676C1.08665 30.1619 1.4169 29.2756 1.91122 28.5085C2.40554 27.7372 3.02131 27.1364 3.75852 26.706C4.49574 26.2713 5.3054 26.054 6.1875 26.054C6.69886 26.054 7.19105 26.1392 7.66406 26.3097C8.13707 26.4801 8.54617 26.7571 8.89134 27.1406C9.23651 27.5199 9.47727 28.0227 9.61364 28.6491C9.75 29.2756 9.74148 30.0469 9.58807 30.9631L9.4858 31.6023H1.91761L2.12216 30.2983H8.15625C8.25426 29.7443 8.22869 29.25 8.07955 28.8153C7.93466 28.3807 7.68111 28.0376 7.31889 27.7862C6.96094 27.5348 6.5071 27.4091 5.95739 27.4091C5.39063 27.4091 4.86222 27.5625 4.37216 27.8693C3.8821 28.1719 3.47301 28.5554 3.14489 29.0199C2.81676 29.4801 2.61222 29.9489 2.53125 30.4261L2.35227 31.5511C2.22443 32.3651 2.24361 33.0128 2.4098 33.4943C2.58026 33.9759 2.87642 34.3232 3.2983 34.5362C3.72017 34.745 4.24858 34.8494 4.88352 34.8494C5.28835 34.8494 5.66122 34.794 6.00213 34.6832C6.34304 34.5682 6.64773 34.3977 6.91619 34.1719C7.18466 33.9418 7.41051 33.6562 7.59375 33.3153L8.97443 33.7244C8.74006 34.2188 8.4098 34.6534 7.98366 35.0284C7.56179 35.3991 7.06747 35.6889 6.50071 35.8977C5.93821 36.1023 5.32244 36.2045 4.65341 36.2045ZM20.2602 26.1818L14.9931 36H13.459L11.4647 26.1818H13.0372L14.4434 34.0057H14.5457L18.5599 26.1818H20.2602ZM24.1743 36.2045C23.2325 36.2045 22.4548 35.9957 21.8412 35.5781C21.2275 35.1562 20.7993 34.5682 20.5564 33.8139C20.3135 33.0554 20.2751 32.1733 20.4413 31.1676C20.6075 30.1619 20.9378 29.2756 21.4321 28.5085C21.9264 27.7372 22.5422 27.1364 23.2794 26.706C24.0166 26.2713 24.8263 26.054 25.7084 26.054C26.2197 26.054 26.7119 26.1392 27.1849 26.3097C27.6579 26.4801 28.067 26.7571 28.4122 27.1406C28.7574 27.5199 28.9981 28.0227 29.1345 28.6491C29.2709 29.2756 29.2623 30.0469 29.1089 30.9631L29.0067 31.6023H21.4385L21.643 30.2983H27.6771C27.7751 29.7443 27.7496 29.25 27.6004 28.8153C27.4555 28.3807 27.202 28.0376 26.8398 27.7862C26.4818 27.5348 26.028 27.4091 25.4782 27.4091C24.9115 27.4091 24.3831 27.5625 23.893 27.8693C23.403 28.1719 22.9939 28.5554 22.6657 29.0199C22.3376 29.4801 22.1331 29.9489 22.0521 30.4261L21.8731 31.5511C21.7453 32.3651 21.7645 33.0128 21.9307 33.4943C22.1011 33.9759 22.3973 34.3232 22.8192 34.5362C23.241 34.745 23.7694 34.8494 24.4044 34.8494C24.8092 34.8494 25.1821 34.794 25.523 34.6832C25.8639 34.5682 26.1686 34.3977 26.4371 34.1719C26.7055 33.9418 26.9314 33.6562 27.1146 33.3153L28.4953 33.7244C28.2609 34.2188 27.9307 34.6534 27.5045 35.0284C27.0826 35.3991 26.5883 35.6889 26.0216 35.8977C25.4591 36.1023 24.8433 36.2045 24.1743 36.2045ZM32.8952 30.0938L31.9236 36H30.4151L32.0514 26.1818H33.5088L33.2531 27.7159H33.381C33.6878 27.2173 34.1033 26.8168 34.6274 26.5142C35.1516 26.2074 35.7844 26.054 36.5259 26.054C37.1821 26.054 37.7361 26.1903 38.1878 26.4631C38.6438 26.7315 38.9655 27.1406 39.153 27.6903C39.3448 28.2358 39.3725 28.9261 39.2361 29.7614L38.1878 36H36.6793L37.702 29.8636C37.8299 29.0966 37.7297 28.4957 37.4016 28.0611C37.0777 27.6264 36.5642 27.4091 35.8611 27.4091C35.3753 27.4091 34.9257 27.5135 34.5124 27.7223C34.1033 27.9311 33.756 28.2358 33.4705 28.6364C33.1892 29.0369 32.9975 29.5227 32.8952 30.0938ZM45.6469 36L47.2832 26.1818H48.7406L48.4849 27.7159H48.6128C48.9068 27.1918 49.3053 26.7848 49.8081 26.495C50.3152 26.201 50.8884 26.054 51.5276 26.054C52.1668 26.054 52.6803 26.201 53.068 26.495C53.4558 26.7848 53.7264 27.1918 53.8798 27.7159H53.9821C54.3145 27.2045 54.7577 26.7997 55.3116 26.5014C55.8699 26.2031 56.5006 26.054 57.2037 26.054C58.073 26.054 58.742 26.3288 59.2108 26.8786C59.6838 27.4283 59.8244 28.2784 59.6327 29.429L58.5332 36H57.0247L58.1241 29.429C58.2392 28.7003 58.1241 28.1825 57.779 27.8757C57.4381 27.5646 56.9991 27.4091 56.4622 27.4091C55.7719 27.4091 55.203 27.6158 54.7555 28.0291C54.3081 28.4425 54.0332 28.9687 53.931 29.608L52.8571 36H51.323L52.448 29.2756C52.5375 28.7131 52.431 28.2614 52.1284 27.9205C51.8259 27.5795 51.3869 27.4091 50.8116 27.4091C50.4196 27.4091 50.0361 27.5156 49.6611 27.7287C49.2861 27.9375 48.9643 28.2273 48.6959 28.598C48.4274 28.9645 48.2548 29.3864 48.1781 29.8636L47.1554 36H45.6469ZM65.2023 36.2045C64.2606 36.2045 63.4829 35.9957 62.8692 35.5781C62.2556 35.1562 61.8273 34.5682 61.5844 33.8139C61.3415 33.0554 61.3032 32.1733 61.4694 31.1676C61.6356 30.1619 61.9658 29.2756 62.4601 28.5085C62.9544 27.7372 63.5702 27.1364 64.3074 26.706C65.0446 26.2713 65.8543 26.054 66.7364 26.054C67.2478 26.054 67.74 26.1392 68.213 26.3097C68.686 26.4801 69.0951 26.7571 69.4402 27.1406C69.7854 27.5199 70.0262 28.0227 70.1625 28.6491C70.2989 29.2756 70.2904 30.0469 70.137 30.9631L70.0347 31.6023H62.4665L62.6711 30.2983H68.7052C68.8032 29.7443 68.7776 29.25 68.6285 28.8153C68.4836 28.3807 68.23 28.0376 67.8678 27.7862C67.5098 27.5348 67.056 27.4091 66.5063 27.4091C65.9395 27.4091 65.4111 27.5625 64.9211 27.8693C64.431 28.1719 64.0219 28.5554 63.6938 29.0199C63.3657 29.4801 63.1611 29.9489 63.0802 30.4261L62.9012 31.5511C62.7733 32.3651 62.7925 33.0128 62.9587 33.4943C63.1292 33.9759 63.4253 34.3232 63.8472 34.5362C64.2691 34.745 64.7975 34.8494 65.4324 34.8494C65.8373 34.8494 66.2101 34.794 66.551 34.6832C66.8919 34.5682 67.1966 34.3977 67.4651 34.1719C67.7336 33.9418 67.9594 33.6562 68.1427 33.3153L69.5233 33.7244C69.289 34.2188 68.9587 34.6534 68.5326 35.0284C68.1107 35.3991 67.6164 35.6889 67.0496 35.8977C66.4871 36.1023 65.8713 36.2045 65.2023 36.2045ZM74.3068 36.2301C73.6846 36.2301 73.1391 36.1129 72.6704 35.8786C72.2016 35.6399 71.8543 35.2969 71.6285 34.8494C71.4026 34.3977 71.3409 33.8523 71.4431 33.2131C71.5411 32.6506 71.7308 32.1946 72.012 31.8452C72.2933 31.4915 72.6342 31.2145 73.0347 31.0142C73.4396 30.8097 73.8742 30.6584 74.3387 30.5604C74.8075 30.4581 75.2741 30.3793 75.7386 30.3239C76.3437 30.2472 76.8359 30.1875 77.2151 30.1449C77.5944 30.1023 77.8799 30.032 78.0717 29.9339C78.2634 29.8359 78.3806 29.6676 78.4232 29.429V29.3778C78.5255 28.7514 78.4424 28.2635 78.1739 27.9141C77.9055 27.5604 77.4261 27.3835 76.7357 27.3835C76.0198 27.3835 75.4211 27.5412 74.9396 27.8565C74.458 28.1719 74.1022 28.5085 73.8721 28.8665L72.5426 28.3551C72.892 27.7585 73.3096 27.294 73.7954 26.9616C74.2812 26.625 74.7904 26.3906 75.3231 26.2585C75.8558 26.1222 76.3693 26.054 76.8636 26.054C77.1789 26.054 77.5347 26.0923 77.931 26.169C78.3274 26.2415 78.6981 26.3928 79.0433 26.6229C79.3927 26.853 79.6548 27.2003 79.8295 27.6648C80.0085 28.1293 80.034 28.7514 79.9062 29.5312L78.8323 36H77.3238L77.5539 34.6705H77.4772C77.3409 34.8835 77.132 35.1115 76.8508 35.3544C76.5738 35.5973 76.2222 35.804 75.7961 35.9744C75.3742 36.1449 74.8778 36.2301 74.3068 36.2301ZM74.7414 34.875C75.338 34.875 75.86 34.7578 76.3075 34.5234C76.7592 34.2891 77.1214 33.9865 77.3941 33.6158C77.6711 33.245 77.8437 32.8551 77.9119 32.446L78.142 31.0653C78.0653 31.142 77.914 31.2124 77.6882 31.2763C77.4623 31.3359 77.2066 31.3892 76.9211 31.4361C76.6399 31.4787 76.365 31.517 76.0965 31.5511C75.8323 31.581 75.6193 31.6065 75.4573 31.6278C75.0568 31.679 74.6754 31.7621 74.3132 31.8771C73.9552 31.9879 73.6526 32.1562 73.4055 32.3821C73.1626 32.6037 73.0113 32.9062 72.9516 33.2898C72.8622 33.8139 72.9879 34.2102 73.3288 34.4787C73.6697 34.7429 74.1406 34.875 74.7414 34.875ZM83.8858 30.0938L82.9142 36H81.4057L83.0421 26.1818H84.4995L84.2438 27.7159H84.3716C84.6784 27.2173 85.0939 26.8168 85.6181 26.5142C86.1422 26.2074 86.775 26.054 87.5165 26.054C88.1727 26.054 88.7267 26.1903 89.1784 26.4631C89.6344 26.7315 89.9561 27.1406 90.1436 27.6903C90.3354 28.2358 90.3631 28.9261 90.2267 29.7614L89.1784 36H87.6699L88.6926 29.8636C88.8205 29.0966 88.7203 28.4957 88.3922 28.0611C88.0683 27.6264 87.5548 27.4091 86.8517 27.4091C86.3659 27.4091 85.9164 27.5135 85.503 27.7223C85.0939 27.9311 84.7466 28.2358 84.4611 28.6364C84.1798 29.0369 83.9881 29.5227 83.8858 30.0938ZM94.3374 32.3182L94.363 32.1648C94.5036 31.3679 94.6953 30.733 94.9382 30.2599C95.1854 29.7869 95.4816 29.4055 95.8267 29.1158C96.1762 28.8217 96.5746 28.5511 97.022 28.304C97.2948 28.1506 97.5483 27.9695 97.7827 27.7607C98.0213 27.5476 98.2216 27.3047 98.3835 27.032C98.5497 26.755 98.6584 26.446 98.7095 26.1051C98.7777 25.6875 98.7415 25.3253 98.6009 25.0185C98.4603 24.7116 98.2408 24.4751 97.9425 24.3089C97.6442 24.1428 97.2948 24.0597 96.8942 24.0597C96.5448 24.0597 96.1932 24.1321 95.8395 24.277C95.4901 24.4219 95.179 24.6499 94.9063 24.9609C94.6378 25.272 94.4482 25.679 94.3374 26.1818H92.7266C92.88 25.4574 93.1698 24.8374 93.5959 24.3217C94.0263 23.8061 94.5441 23.4119 95.1492 23.1392C95.7585 22.8665 96.4084 22.7301 97.0987 22.7301C97.8487 22.7301 98.4773 22.8793 98.9844 23.1776C99.4915 23.4759 99.8558 23.8849 100.077 24.4048C100.299 24.9247 100.354 25.517 100.244 26.1818C100.167 26.6506 100.024 27.0746 99.8154 27.4538C99.6108 27.8331 99.3487 28.1719 99.0291 28.4702C98.7138 28.7685 98.3516 29.0284 97.9425 29.25C97.5334 29.4801 97.1946 29.723 96.9262 29.9787C96.6577 30.2301 96.4425 30.5305 96.2806 30.88C96.1186 31.2251 95.9908 31.6534 95.897 32.1648L95.8715 32.3182H94.3374ZM94.7209 36.1023C94.397 36.1023 94.1264 35.9915 93.9091 35.7699C93.6918 35.544 93.5789 35.2713 93.5703 34.9517C93.5661 34.6321 93.679 34.3658 93.9091 34.1527C94.1392 33.9354 94.4098 33.8267 94.7209 33.8267C95.0362 33.8267 95.309 33.9375 95.5391 34.1591C95.7692 34.3807 95.88 34.6449 95.8715 34.9517C95.8672 35.1648 95.8118 35.3587 95.7053 35.5334C95.603 35.7081 95.4645 35.8466 95.2898 35.9489C95.1193 36.0511 94.9297 36.1023 94.7209 36.1023Z" fill="#FF3361"/>
</svg>
